<svg xmlns="http://www.w3.org/2000/svg" width="1600" height="900" viewBox="0 0 1600 900">
  <defs>
    <radialGradient id="g1" cx="20%" cy="20%" r="55%">
      <stop offset="0" stop-color="#f6b51e" stop-opacity="0.26"/>
      <stop offset="1" stop-color="#020617" stop-opacity="0"/>
    </radialGradient>
    <radialGradient id="g2" cx="80%" cy="30%" r="50%">
      <stop offset="0" stop-color="#38bdf8" stop-opacity="0.22"/>
      <stop offset="1" stop-color="#020617" stop-opacity="0"/>
    </radialGradient>
    <linearGradient id="film" x1="0" x2="1">
      <stop offset="0" stop-color="#f6b51e" stop-opacity="0.25"/>
      <stop offset="1" stop-color="#ffffff" stop-opacity="0.04"/>
    </linearGradient>
  </defs>
  <rect width="1600" height="900" fill="#020617"/>
  <rect width="1600" height="900" fill="url(#g1)"/>
  <rect width="1600" height="900" fill="url(#g2)"/>
  <g opacity="0.28" transform="translate(80 110)">
    <rect x="0" y="0" width="520" height="280" rx="38" fill="none" stroke="url(#film)" stroke-width="5"/>
    <rect x="44" y="42" width="96" height="72" rx="12" fill="#f6b51e" opacity="0.28"/>
    <rect x="164" y="42" width="96" height="72" rx="12" fill="#ffffff" opacity="0.10"/>
    <rect x="284" y="42" width="96" height="72" rx="12" fill="#f6b51e" opacity="0.18"/>
    <rect x="404" y="42" width="72" height="72" rx="12" fill="#ffffff" opacity="0.08"/>
    <rect x="44" y="156" width="432" height="18" rx="9" fill="#ffffff" opacity="0.14"/>
    <rect x="44" y="198" width="260" height="18" rx="9" fill="#f6b51e" opacity="0.24"/>
  </g>
  <g opacity="0.22" transform="translate(1000 520) rotate(-8)">
    <circle cx="130" cy="130" r="128" fill="none" stroke="#f6b51e" stroke-width="8"/>
    <polygon points="108,76 108,184 190,130" fill="#f6b51e"/>
  </g>
</svg>
