<svg xmlns="http://www.w3.org/2000/svg" width="1800" height="1000" viewBox="0 0 1800 1000">
  <defs>
    <radialGradient id="g1" cx="78%" cy="22%" r="65%"><stop offset="0" stop-color="#26394a" stop-opacity="0.8"/><stop offset="0.45" stop-color="#0a1520" stop-opacity="0.28"/><stop offset="1" stop-color="#061018" stop-opacity="0"/></radialGradient>
    <linearGradient id="gold" x1="0" x2="1"><stop stop-color="#f6b51e"/><stop offset="1" stop-color="#ffd76a"/></linearGradient>
    <filter id="blur"><feGaussianBlur stdDeviation="14"/></filter>
  </defs>
  <rect width="1800" height="1000" fill="#061018"/>
  <rect width="1800" height="1000" fill="url(#g1)"/>
  <g opacity="0.16">
    <circle cx="1320" cy="340" r="210" fill="none" stroke="url(#gold)" stroke-width="5"/>
    <circle cx="1320" cy="340" r="130" fill="none" stroke="#ffffff" stroke-width="2"/>
    <polygon points="1280,270 1280,410 1410,340" fill="url(#gold)" opacity="0.85"/>
  </g>
  <g opacity="0.12" filter="url(#blur)">
    <circle cx="1450" cy="180" r="90" fill="#f6b51e"/>
    <circle cx="1050" cy="680" r="130" fill="#2b7fff"/>
  </g>
  <g opacity="0.11">
    <path d="M960 120h520c42 0 76 34 76 76v300c0 42-34 76-76 76H960c-42 0-76-34-76-76V196c0-42 34-76 76-76z" fill="none" stroke="#fff" stroke-width="3"/>
    <path d="M930 210h580M930 310h580M930 410h580" stroke="#fff" stroke-width="2"/>
  </g>
</svg>
